<svg width="100" height="101" viewBox="0 0 100 101" fill="none"
  xmlns="http://www.w3.org/2000/svg">
  <path d="M100 50.7449C100 23.1306 77.6142 0.744873 50 0.744873C22.3858 0.744873 0 23.1306 0 50.7449C0 78.3591 22.3858 100.745 50 100.745C77.6142 100.745 100 78.3591 100 50.7449Z" fill="white"/>
  <path fill-rule="evenodd" clip-rule="evenodd" d="M64.3206 16.8194C63.1646 17.9722 63.1646 19.8413 64.3206 20.9941L66.6676 23.3346H48.887C33.4854 23.3346 21 35.7856 21 51.1447C21 66.5038 33.4854 78.9548 48.887 78.9548C64.2885 78.9548 76.7739 66.5038 76.7739 51.1447C76.7739 49.5144 75.4486 48.1928 73.8138 48.1928C72.179 48.1928 70.8538 49.5144 70.8538 51.1447C70.8538 63.2432 61.0189 73.051 48.887 73.051C36.755 73.051 26.9201 63.2432 26.9201 51.1447C26.9201 39.0462 36.755 29.2385 48.887 29.2385H66.6676L64.3206 31.579C63.1646 32.7318 63.1646 34.6008 64.3206 35.7536C65.4766 36.9064 67.3508 36.9064 68.5068 35.7536L76.2249 28.0568C77.2045 27.0799 77.2045 25.4932 76.2249 24.5163L68.5068 16.8194C67.3508 15.6666 65.4766 15.6666 64.3206 16.8194Z" fill="black"/>
</svg>
