<svg width="100" height="101" viewBox="0 0 100 101" fill="none"
  xmlns="http://www.w3.org/2000/svg">
  <path d="M100 50.915C100 23.3007 77.6142 0.914978 50 0.914978C22.3858 0.914978 0 23.3007 0 50.915C0 78.5292 22.3858 100.915 50 100.915C77.6142 100.915 100 78.5292 100 50.915Z" fill="#06AED5"/>
  <path fill-rule="evenodd" clip-rule="evenodd" d="M35.7143 29.5471C33.3473 29.5471 31.4286 31.4658 31.4286 33.8328V68.1186C31.4286 70.4856 33.3473 72.4043 35.7143 72.4043H40C42.367 72.4043 44.2857 70.4856 44.2857 68.1186V33.8328C44.2857 31.4658 42.367 29.5471 40 29.5471H35.7143ZM60 29.5471C57.633 29.5471 55.7143 31.4658 55.7143 33.8328V68.1186C55.7143 70.4856 57.633 72.4043 60 72.4043H64.2857C66.6527 72.4043 68.5714 70.4856 68.5714 68.1186V33.8328C68.5714 31.4658 66.6527 29.5471 64.2857 29.5471H60Z" fill="white"/>
</svg>
