<svg width="100" height="101" viewBox="0 0 100 101" fill="none"
  xmlns="http://www.w3.org/2000/svg">
  <path d="M100 50.7449C100 23.1306 77.6142 0.744873 50 0.744873C22.3858 0.744873 0 23.1306 0 50.7449C0 78.3591 22.3858 100.745 50 100.745C77.6142 100.745 100 78.3591 100 50.7449Z" fill="white"/>
  <path fill-rule="evenodd" clip-rule="evenodd" d="M34.6794 16.8194C35.8354 17.9722 35.8354 19.8413 34.6794 20.9941L32.3324 23.3346H50.113C65.5146 23.3346 78 35.7856 78 51.1447C78 66.5038 65.5146 78.9548 50.113 78.9548C34.7115 78.9548 22.2261 66.5038 22.2261 51.1447C22.2261 49.5144 23.5514 48.1928 25.1862 48.1928C26.821 48.1928 28.1462 49.5144 28.1462 51.1447C28.1462 63.2432 37.9811 73.051 50.113 73.051C62.245 73.051 72.0799 63.2432 72.0799 51.1447C72.0799 39.0462 62.245 29.2385 50.113 29.2385H32.3324L34.6794 31.579C35.8354 32.7318 35.8354 34.6008 34.6794 35.7536C33.5234 36.9064 31.6492 36.9064 30.4932 35.7536L22.7751 28.0568C21.7955 27.0799 21.7955 25.4932 22.7751 24.5163L30.4932 16.8194C31.6492 15.6666 33.5234 15.6666 34.6794 16.8194Z" fill="black"/>
</svg>
